<?xml version="1.0" encoding="UTF-8"?>
<svg version="1.1" xmlns="http://www.w3.org/2000/svg" width="500" height="500">
<path d="M0 0 C165 0 330 0 500 0 C500 165 500 330 500 500 C335 500 170 500 0 500 C0 335 0 170 0 0 Z " fill="#FEFEFE" transform="translate(0,0)"/>
<path d="M0 0 C1.5159375 0.01546875 1.5159375 0.01546875 3.0625 0.03125 C6.35992921 0.55743551 8.31411757 1.5431428 11 3.5 C13.43424464 8.36848928 12.31256657 15.82463846 12.35009766 21.23925781 C12.36666666 22.99297345 12.39396944 24.74662129 12.43212891 26.5 C12.48687951 29.0290019 12.50876591 31.55642292 12.5234375 34.0859375 C12.54610687 34.86834808 12.56877625 35.65075867 12.59213257 36.45687866 C12.57705018 40.34126068 12.36996553 42.10242627 9.68041992 44.99267578 C6.25863179 46.91690567 3.84814583 47.03346007 -0.0625 47 C-1.27035156 47.0103125 -2.47820312 47.020625 -3.72265625 47.03125 C-7.70536083 46.38566261 -8.62649251 45.72344983 -11 42.5 C-11.4100178 39.60135241 -11.5850002 37.08928818 -11.56640625 34.19140625 C-11.57260483 33.38767075 -11.57880341 32.58393524 -11.58518982 31.75584412 C-11.59228199 30.05884002 -11.5891244 28.36176626 -11.57641602 26.66479492 C-11.56256176 24.07404882 -11.59660937 21.48692476 -11.63476562 18.89648438 C-11.63571701 17.24479079 -11.63385696 15.59309269 -11.62890625 13.94140625 C-11.64216446 13.17043106 -11.65542267 12.39945587 -11.66908264 11.6051178 C-11.59968979 7.57723756 -11.16598742 5.71071405 -8.64428711 2.50952148 C-5.4877827 0.11074134 -3.92221444 -0.12006779 0 0 Z " fill="#3DB7FE" transform="translate(346,196.5)"/>
<path d="M0 0 C18 0 18 0 23 4 C23.64697266 7.328125 23.64697266 7.328125 23.6640625 11.25 C23.66884613 11.94512695 23.67362976 12.64025391 23.67855835 13.35644531 C23.68195227 14.82228872 23.67278481 16.28820833 23.65185547 17.75390625 C23.62507283 19.99390886 23.65160999 22.22890266 23.68359375 24.46875 C23.68028955 25.89584436 23.67388308 27.32293561 23.6640625 28.75 C23.65842285 30.04421875 23.6527832 31.3384375 23.64697266 32.671875 C23 36 23 36 18 40 C12.06 40 6.12 40 0 40 C0 26.8 0 13.6 0 0 Z " fill="#3EB8FE" transform="translate(278,203)"/>
<path d="M0 0 C18 0 18 0 23 4 C23.59936523 6.25830078 23.59936523 6.25830078 23.55859375 8.6953125 C23.55150391 9.57574219 23.54441406 10.45617187 23.53710938 11.36328125 C23.50423828 12.27464844 23.47136719 13.18601563 23.4375 14.125 C23.43169922 15.04410156 23.42589844 15.96320313 23.41992188 16.91015625 C23.29520381 23.70479619 23.29520381 23.70479619 21 26 C21.20268075 29.37179807 21.20268075 29.37179807 21.875 33.125 C22.07867187 34.40632813 22.28234375 35.68765625 22.4921875 37.0078125 C22.65976563 37.99523437 22.82734375 38.98265625 23 40 C20.36 40 17.72 40 15 40 C14.34 36.04 13.68 32.08 13 28 C11.35 28 9.7 28 8 28 C8 31.96 8 35.92 8 40 C5.36 40 2.72 40 0 40 C0 26.8 0 13.6 0 0 Z " fill="#41B8FE" transform="translate(217,203)"/>
<path d="M0 0 C0 29.7 0 59.4 0 90 C-8 86 -8 86 -9 85 C-9.1322136 82.53225386 -9.19979231 80.09172277 -9.22460938 77.62207031 C-9.23599945 76.8496701 -9.24738953 76.0772699 -9.25912476 75.28146362 C-9.36980959 67.19465932 -9.41721528 59.10693366 -9.45996094 51.01953125 C-9.4822438 47.17988438 -9.52401777 43.34120836 -9.58300781 39.50195312 C-9.65402744 34.87117226 -9.69078276 30.24130575 -9.70307922 25.61000824 C-9.71349264 23.8444787 -9.73594757 22.07897752 -9.77067566 20.31375885 C-9.81682601 17.83992275 -9.81889076 15.36967813 -9.81054688 12.89550781 C-9.8459407 11.80274033 -9.8459407 11.80274033 -9.88204956 10.68789673 C-9.83342733 7.70689806 -9.56669598 5.58721122 -7.45753479 3.40169525 C-2.86592424 0 -2.86592424 0 0 0 Z " fill="#38B6FF" transform="translate(141,176)"/>
<path d="M0 0 C1.98 0 3.96 0 6 0 C9.3 6.27 12.6 12.54 16 19 C16.33 12.73 16.66 6.46 17 0 C19.31 0 21.62 0 24 0 C24 13.2 24 26.4 24 40 C22.02 40 20.04 40 18 40 C14.66666667 33.33333333 11.33333333 26.66666667 8 20 C7.67 26.6 7.34 33.2 7 40 C4.69 40 2.38 40 0 40 C0 26.8 0 13.6 0 0 Z " fill="#3AB6FE" transform="translate(364,203)"/>
<path d="M0 0 C3.3 0 6.6 0 10 0 C12.58750186 8.47081616 14.77093012 16.99435223 16.75 25.625 C16.97260498 26.58486816 17.19520996 27.54473633 17.42456055 28.53369141 C17.62992432 29.44296387 17.83528809 30.35223633 18.046875 31.2890625 C18.23088867 32.10068848 18.41490234 32.91231445 18.60449219 33.74853516 C19 36 19 36 19 40 C16.69 40 14.38 40 12 40 C11.34 37.36 10.68 34.72 10 32 C6.37 32 2.74 32 -1 32 C-1.33 34.64 -1.66 37.28 -2 40 C-4.31 40 -6.62 40 -9 40 C-8.51910032 31.56953424 -6.60655821 23.65551051 -4.5 15.5 C-4.17902344 14.22640625 -3.85804688 12.9528125 -3.52734375 11.640625 C-1.15496483 2.30992965 -1.15496483 2.30992965 0 0 Z " fill="#3FB8FE" transform="translate(254,203)"/>
<path d="M0 0 C7 4 7 4 8 5 C8.1322136 7.46774614 8.19979231 9.90827723 8.22460938 12.37792969 C8.23599945 13.1503299 8.24738953 13.9227301 8.25912476 14.71853638 C8.36980959 22.80534068 8.41721528 30.89306634 8.45996094 38.98046875 C8.4822438 42.82011562 8.52401777 46.65879164 8.58300781 50.49804688 C8.65402744 55.12882774 8.69078276 59.75869425 8.70307922 64.38999176 C8.71349264 66.1555213 8.73594757 67.92102248 8.77067566 69.68624115 C8.81682601 72.16007725 8.81889076 74.63032187 8.81054688 77.10449219 C8.83414276 77.83300385 8.85773865 78.5615155 8.88204956 79.31210327 C8.83306576 82.31526923 8.57261542 84.41987735 6.42237854 86.59830475 C1.76409836 90 1.76409836 90 0 90 C0 60.3 0 30.6 0 0 Z " fill="#38B6FF" transform="translate(89,176)"/>
<path d="M0 0 C7.59 0 15.18 0 23 0 C23 2.31 23 4.62 23 7 C22 8 22 8 18.83984375 8.09765625 C16.90818359 8.08025391 16.90818359 8.08025391 14.9375 8.0625 C13.64714844 8.05347656 12.35679687 8.04445312 11.02734375 8.03515625 C10.02832031 8.02355469 9.02929688 8.01195312 8 8 C8 10.64 8 13.28 8 16 C11.63 16 15.26 16 19 16 C19 18.64 19 21.28 19 24 C15.37 24 11.74 24 8 24 C8 26.64 8 29.28 8 32 C8.99902344 31.98839844 9.99804688 31.97679687 11.02734375 31.96484375 C12.31769531 31.95582031 13.60804688 31.94679687 14.9375 31.9375 C16.22527344 31.92589844 17.51304687 31.91429687 18.83984375 31.90234375 C22 32 22 32 23 33 C23 35.31 23 37.62 23 40 C15.41 40 7.82 40 0 40 C0 26.8 0 13.6 0 0 Z " fill="#3FB8FE" transform="translate(394,203)"/>
<path d="M0 0 C7.26 0 14.52 0 22 0 C22 2.64 22 5.28 22 8 C17.38 8 12.76 8 8 8 C8 10.64 8 13.28 8 16 C11.63 16 15.26 16 19 16 C19 18.64 19 21.28 19 24 C15.37 24 11.74 24 8 24 C8 26.64 8 29.28 8 32 C12.62 32 17.24 32 22 32 C22 34.64 22 37.28 22 40 C14.74 40 7.48 40 0 40 C0 26.8 0 13.6 0 0 Z " fill="#3FB8FE" transform="translate(307,203)"/>
<path d="M0 0 C5 2 5 2 8 4 C8.40786743 6.44673157 8.40786743 6.44673157 8.45166016 9.5637207 C8.4740274 10.72865555 8.49639465 11.89359039 8.5194397 13.09382629 C8.52591522 14.35837143 8.53239075 15.62291656 8.5390625 16.92578125 C8.55141937 18.22065964 8.56377625 19.51553802 8.57650757 20.84965515 C8.59900389 23.59441382 8.60853943 26.33889454 8.61083984 29.08374023 C8.61611589 32.59515478 8.66738516 36.10424401 8.73035622 39.61503315 C8.78115373 42.96861876 8.7818529 46.32182134 8.7890625 49.67578125 C8.81578033 50.93425369 8.84249817 52.19272614 8.87002563 53.48933411 C8.80357527 62.01409661 8.80357527 62.01409661 6.42352295 64.93417358 C2.23589935 68 2.23589935 68 0 68 C0 45.56 0 23.12 0 0 Z " fill="#38B6FF" transform="translate(67,187)"/>
<path d="M0 0 C0 22.44 0 44.88 0 68 C-7 64 -7 64 -8 63 C-8.12523184 61.18095611 -8.18074256 59.35707016 -8.20874023 57.53393555 C-8.22803085 56.36569748 -8.24732147 55.19745941 -8.26719666 53.99382019 C-8.32464166 48.64148331 -8.37453116 43.2893145 -8.4050293 37.93676758 C-8.4228391 35.10883174 -8.45764546 32.28189385 -8.50756836 29.4543457 C-8.57925121 25.38997345 -8.60198593 21.32668374 -8.62109375 17.26171875 C-8.64892441 15.99494797 -8.67675507 14.72817719 -8.70542908 13.42301941 C-8.68533749 4.89474395 -8.68533749 4.89474395 -6.69241333 2.2928772 C-4.52980528 0.78258928 -2.65264932 0 0 0 Z " fill="#38B6FF" transform="translate(162,187)"/>
<path d="M0 0 C3.64581687 -0.02887512 7.29160463 -0.04675585 10.9375 -0.0625 C12.49887695 -0.07506836 12.49887695 -0.07506836 14.09179688 -0.08789062 C15.57583008 -0.09272461 15.57583008 -0.09272461 17.08984375 -0.09765625 C18.46450806 -0.10551147 18.46450806 -0.10551147 19.86694336 -0.11352539 C22 0 22 0 23 1 C23.04092937 3.33297433 23.04241723 5.66705225 23 8 C20.36 8 17.72 8 15 8 C15 20.54 15 33.08 15 46 C12.36 46 9.72 46 7 46 C7 33.46 7 20.92 7 8 C4.69 8 2.38 8 0 8 C0 5.36 0 2.72 0 0 Z " fill="#3FB8FE" transform="translate(190,197)"/>
<path d="M0 0 C2.97 0 5.94 0 9 0 C9 16.17 9 32.34 9 49 C6.03 49 3.06 49 0 49 C0 32.83 0 16.66 0 0 Z " fill="#38B6FF" transform="translate(110,228)"/>
<path d="M0 0 C2.97 0 5.94 0 9 0 C9 16.17 9 32.34 9 49 C6.03 49 3.06 49 0 49 C0 32.83 0 16.66 0 0 Z " fill="#38B6FF" transform="translate(110,164)"/>
<path d="M0 0 C2.33294775 -0.04241723 4.66702567 -0.04092937 7 0 C8.85714057 1.85714057 8.13048681 4.92507049 8.1328125 7.40625 C8.13410156 8.70691406 8.13539063 10.00757813 8.13671875 11.34765625 C8.13357666 12.36883545 8.13357666 12.36883545 8.13037109 13.41064453 C8.1250224 15.49128515 8.1303168 17.57170989 8.13671875 19.65234375 C8.13542969 20.95300781 8.13414062 22.25367188 8.1328125 23.59375 C8.13168457 24.79708984 8.13055664 26.00042969 8.12939453 27.24023438 C8 30 8 30 7 31 C4 31.125 4 31.125 1 31 C0 30 0 30 -0.11352539 27.13256836 C-0.10828857 25.88096924 -0.10305176 24.62937012 -0.09765625 23.33984375 C-0.0962413 22.67537735 -0.09482635 22.01091095 -0.09336853 21.3263092 C-0.08775518 19.19666101 -0.07520054 17.06711661 -0.0625 14.9375 C-0.05748671 13.49674631 -0.05292351 12.05599097 -0.04882812 10.61523438 C-0.03778145 7.07678898 -0.02050792 3.53840461 0 0 Z " fill="#EDF5F9" transform="translate(343,205)"/>
<path d="M0 0 C2.31 0 4.62 0 7 0 C7 7.92 7 15.84 7 24 C4.69 24 2.38 24 0 24 C0 16.08 0 8.16 0 0 Z " fill="#F9F9F9" transform="translate(286,211)"/>
<path d="M0 0 C2.31 0 4.62 0 7 0 C7 3.96 7 7.92 7 12 C4.69 12 2.38 12 0 12 C0 8.04 0 4.08 0 0 Z " fill="#F8F8F8" transform="translate(225,211)"/>
<path d="M0 0 C0.66 0 1.32 0 2 0 C4.29612756 9.41002278 4.29612756 9.41002278 4 14 C2.02 14 0.04 14 -2 14 C-1.43393721 9.30976546 -0.81462495 4.65499974 0 0 Z " fill="#E2EEF4" transform="translate(258,214)"/>
<path d="M0 0 C1.65 0 3.3 0 5 0 C4.2733313 0.75458496 4.2733313 0.75458496 3.53198242 1.52441406 C1.48348938 4.83464823 1.52272901 7.829297 1.48828125 11.609375 C1.47033005 12.33618469 1.45237885 13.06299438 1.43388367 13.81182861 C1.37986759 16.12449407 1.3459144 18.43695421 1.3125 20.75 C1.27931907 22.3216431 1.24482868 23.89325914 1.20898438 25.46484375 C1.12414672 29.30974746 1.05729494 33.15459122 1 37 C0.67 37 0.34 37 0 37 C0 24.79 0 12.58 0 0 Z " fill="#ECF0F3" transform="translate(205,205)"/>
<path d="M0 0 C3 4 3 4 3 6 C2.34 6 1.68 6 1 6 C1 10.95 1 15.9 1 21 C0.67 21 0.34 21 0 21 C0 14.07 0 7.14 0 0 Z " fill="#DDEAF2" transform="translate(371,221)"/>
<path d="M0 0 C2.97 0 5.94 0 9 0 C8.67 0.66 8.34 1.32 8 2 C5.35139573 2.59355614 2.70802678 2.74209269 0 3 C0 2.01 0 1.02 0 0 Z " fill="#ECECEC" transform="translate(315,227)"/>
</svg>
